<svg width="650" height="377" viewBox="0 0 650 377" fill="none" xmlns="http://www.w3.org/2000/svg">
<path d="M386.5 315C373 333.667 337.9 372 305.5 376C302.667 377.167 299.8 370.1 311 332.5L305.5 315L311 306C259.667 295.167 143.6 240.7 90 109.5C67.6667 111.333 18.5 106.3 0.5 71.5C15.3333 69.8333 44.8 65.7 44 62.5C43.0063 58.525 79.5389 53.5625 84.9025 67.2397C82.6859 61.0925 83.495 46.9638 104 37.5C108.5 33.6667 121.2 20.8 136 0C144.667 11 153.4 44.5 119 90.5C137.333 112.667 173.7 155.1 172.5 147.5C171 138 180 134.5 174.5 112.5C179 110.5 193.7 118.8 216.5 168C226.5 176.833 258.3 187.1 305.5 157.5C357.333 113.167 477 28.8 541 46C572.667 37.5 637.4 25.6 643 46C656.333 88.6667 656.4 192.5 550 266.5C550.667 268.5 559.6 273.9 590 279.5C580.333 282.667 557 290.7 541 297.5C530.667 292.167 508.6 283.5 503 291.5C478 299.333 419.7 315 386.5 315Z" fill="#FF0000"/>
</svg>
